<svg xmlns="http://www.w3.org/2000/svg" viewBox="0 0 272.07 36.26"><defs><style>.cls-1{fill:#fff;fill-rule:evenodd;}</style></defs><g id="Capa_2" data-name="Capa 2"><g id="Capa_1-2" data-name="Capa 1"><path class="cls-1" d="M263.61,20.87H267l5.1,14.19H269l-.94-3h-5.48l-.94,3h-3.06l5-14.19Zm1.72,2.83-2,6h3.92l-2-6ZM248.09,35.06V20.87H251V32.4h6.9v2.66Zm-12.06,0V20.87h3V32.4h6.89v2.66Zm-13.41,0V20.87h10.27v2.44h-7.36v3.06h6.73v2.42h-6.73V32.4h7.75v2.66Zm-9.31,0V23.39h-4.23V20.87h11.28v2.52H216.2V35.06Zm-17.11,0V20.87h2.9V35.06Zm-15,0V20.87h5.49c2.19,0,3.83.56,4.85,1.73s1.65,3,1.65,5.33a9.4,9.4,0,0,1-.62,3.45,5,5,0,0,1-1.73,2.36,5.27,5.27,0,0,1-1.87,1,13.34,13.34,0,0,1-3.06.32Zm2.83-2.59h2.35a3.56,3.56,0,0,0,2.9-1.09,5.09,5.09,0,0,0,.94-3.45,5.79,5.79,0,0,0-.86-3.45,3,3,0,0,0-2.67-1.09h-2.66v9.08Zm-26.92-4.54A7.59,7.59,0,0,1,159,22.52a6.57,6.57,0,0,1,5-2,6.71,6.71,0,0,1,5.09,2A7.55,7.55,0,0,1,171,27.93a7.71,7.71,0,0,1-1.88,5.48A6.72,6.72,0,0,1,164,35.46a6.58,6.58,0,0,1-5-2.05,7.76,7.76,0,0,1-1.88-5.48Zm3,0a5.68,5.68,0,0,0,1,3.68A3.45,3.45,0,0,0,164,32.86a3.63,3.63,0,0,0,3-1.25,5.74,5.74,0,0,0,1-3.68,5.56,5.56,0,0,0-1-3.61A3.68,3.68,0,0,0,164,23a3.5,3.5,0,0,0-2.89,1.32,5.51,5.51,0,0,0-1,3.61Zm-11.67,7.13V23.39h-4.23V20.87H155.5v2.52h-4.15V35.06ZM135.69,20.87h3.36l5.09,14.19h-3l-1-3h-5.48l-.94,3h-3.06l5-14.19Zm1.72,2.83-2,6h4l-2-6Zm-19.75-2.9h3v8.93a3.24,3.24,0,0,0,.62,2.36,2.35,2.35,0,0,0,2,.77,2.46,2.46,0,0,0,2.12-.77,3.28,3.28,0,0,0,.7-2.36V20.8H129v9.25a5.13,5.13,0,0,1-1.49,4,5.67,5.67,0,0,1-4.15,1.42A5.75,5.75,0,0,1,119.15,34a5.1,5.1,0,0,1-1.49-4V20.8Zm-2.82,9.32A5,5,0,0,1,113,34a6.27,6.27,0,0,1-4.39,1.49,6.47,6.47,0,0,1-4.93-2,8.55,8.55,0,0,1-1.73-5.56,7.84,7.84,0,0,1,1.8-5.48,6.46,6.46,0,0,1,5.09-2,6.56,6.56,0,0,1,4.32,1.33,5,5,0,0,1,1.72,3.76h-2.9A3,3,0,0,0,111,23.7a3.66,3.66,0,0,0-2.2-.62,3.38,3.38,0,0,0-2.89,1.24,5.5,5.5,0,0,0-1,3.61,5.44,5.44,0,0,0,1,3.6,3.22,3.22,0,0,0,2.82,1.25,3.33,3.33,0,0,0,2.18-.69,3.06,3.06,0,0,0,1.11-2Zm-27,4.94V20.87h6.9a5.08,5.08,0,0,1,3.37.95,3.87,3.87,0,0,1,1.18,3.06,4.71,4.71,0,0,1-.55,2.18,3.36,3.36,0,0,1-1.57,1.19,2.48,2.48,0,0,1,1.33,1,4.18,4.18,0,0,1,.4,2L99,33h0c0,.85.25,1.4.55,1.56v.47H96.35c-.08-.23-.16-.47-.24-.78s-.07-.63-.07-1V31.77a3.15,3.15,0,0,0-.55-1.8,2.09,2.09,0,0,0-1.56-.47H90.78v5.56Zm2.9-8h3.45a2.59,2.59,0,0,0,1.65-.46,2,2,0,0,0,.54-1.41,2,2,0,0,0-.54-1.42,2.14,2.14,0,0,0-1.49-.46H90.78v3.75Zm-19.66.87A7.56,7.56,0,0,1,73,22.52a6.72,6.72,0,0,1,5.09-2,6.54,6.54,0,0,1,5,2A7.55,7.55,0,0,1,85,27.93a7.71,7.71,0,0,1-1.88,5.48,6.56,6.56,0,0,1-5,2.05A6.74,6.74,0,0,1,73,33.41a7.72,7.72,0,0,1-1.89-5.48Zm3,0a5.69,5.69,0,0,0,1.1,3.68,4,4,0,0,0,5.79,0,5.69,5.69,0,0,0,1.1-3.68A5.52,5.52,0,0,0,81,24.32a3.83,3.83,0,0,0-5.79,0,5.52,5.52,0,0,0-1.1,3.61ZM62.43,35.06V23.39H58.2V20.87H69.56v2.52H65.33V35.06Z"/><path class="cls-1" d="M178.85,14.5V.32h5.41a5.89,5.89,0,0,1,4.54,1.81,7.57,7.57,0,0,1,1.56,5.09,8.07,8.07,0,0,1-1.64,5.4,5.67,5.67,0,0,1-4.55,1.88ZM184.1,2h-3.29V12.78h3.29a4,4,0,0,0,3.21-1.33,7,7,0,0,0,1.1-4.16,6.37,6.37,0,0,0-1.1-3.92A3.92,3.92,0,0,0,184.1,2ZM164.2,14.5,169.45.32h2.11l5.26,14.18h-2l-1.49-4.23h-5.64l-1.48,4.23Zm4.07-5.87h4.39l-2.2-6.27-2.19,6.27ZM151.43,14.5V.32h5.4a5.9,5.9,0,0,1,4.55,1.81,7.63,7.63,0,0,1,1.56,5.09,8.12,8.12,0,0,1-1.64,5.4,5.69,5.69,0,0,1-4.54,1.88ZM156.68,2h-3.29V12.78h3.29a4,4,0,0,0,3.21-1.33A6.9,6.9,0,0,0,161,7.29a6.3,6.3,0,0,0-1.09-3.92A3.94,3.94,0,0,0,156.68,2ZM145.86,14.5V.32h2V14.5ZM131.92,9.88h1.8a3.68,3.68,0,0,0,1,2.43,3.87,3.87,0,0,0,2.67.94,4.21,4.21,0,0,0,2.58-.7,2.13,2.13,0,0,0,1-1.88c0-1.11-1.25-2-3.59-2.51-.17,0-.25,0-.32-.08a9.73,9.73,0,0,1-3.83-1.49,3.08,3.08,0,0,1-.95-2.43,3.78,3.78,0,0,1,1.41-3A6,6,0,0,1,137.41,0a5.32,5.32,0,0,1,3.68,1.19,4.12,4.12,0,0,1,1.41,3.29l-1.88.08a3.06,3.06,0,0,0-.94-2.2,3.42,3.42,0,0,0-2.36-.78,3.78,3.78,0,0,0-2.27.62,1.76,1.76,0,0,0-.85,1.65c0,1.09,1.17,1.87,3.52,2.43a7.72,7.72,0,0,1,.79.23h.15a8.38,8.38,0,0,1,3.05,1.18,3.77,3.77,0,0,1,.87,1.18,3.51,3.51,0,0,1,.31,1.56,4.06,4.06,0,0,1-1.49,3.28,6,6,0,0,1-3.92,1.18,5.67,5.67,0,0,1-4.07-1.33,5.16,5.16,0,0,1-1.49-3.68Zm-13-9.56h5.48a10.4,10.4,0,0,1,1.95.16,4.67,4.67,0,0,1,1.18.39,3.71,3.71,0,0,1,1.34,1.33,4.48,4.48,0,0,1,.46,2.12,4.11,4.11,0,0,1-.46,2,4,4,0,0,1-1.5,1.25,1.87,1.87,0,0,1,1.18.78,3.92,3.92,0,0,1,.47,1.81l.16,2.34a4.65,4.65,0,0,0,.15,1.18c.16.24.24.39.47.48v.38h-2.18a3.87,3.87,0,0,1-.4-1.88v-.07l-.15-1.81a2.69,2.69,0,0,0-.55-1.87,5.76,5.76,0,0,0-2.6-.4h-3.13v6h-1.87V.32ZM120.79,2V6.82h3.3a4.77,4.77,0,0,0,2.5-.54,2.39,2.39,0,0,0,.78-2,2.13,2.13,0,0,0-.7-1.8A4.91,4.91,0,0,0,124.09,2Zm-15,12.46V.32h10.11V2.13h-8.15V6.35h7.52V8h-7.52v4.78H116V14.5Zm-9,0L91.65.32h2l4.08,11.91L101.68.32h2l-5,14.18Zm-9.09,0V.32h1.88V14.5Zm-14.8,0V.32h2l6.67,10.35c.15.22.23.38.39.63s.15.39.23.53V.32h1.88V14.5H81.94L75.2,4.08a1.71,1.71,0,0,1-.32-.47c-.07-.16-.15-.39-.23-.55V14.5ZM58.2,9.17V.32h2V9.17A4.28,4.28,0,0,0,61,12.08a4.19,4.19,0,0,0,5.48,0,3.91,3.91,0,0,0,.87-2.91V.32h1.95V9.17a5.81,5.81,0,0,1-1.48,4.31,6,6,0,0,1-4.32,1.41,5.41,5.41,0,0,1-4-1.41A6.29,6.29,0,0,1,58.2,9.17Z"/><path class="cls-1" d="M0,.63V36.26H50.87V.63ZM1.85,2.27h12.4L1.85,28.7Zm0,32.29L16.56,2.27h9.17L11,34.56Zm11.68,0L28.16,2.27h9.3L22.68,34.56Zm35.47,0H36.6L49,8.13Zm-14.7,0H25.13L39.83,2.27H49Z"/></g></g></svg>